<?xml version="1.0" standalone="no"?><!DOCTYPE svg PUBLIC "-//W3C//DTD SVG 1.1//EN" "http://www.w3.org/Graphics/SVG/1.1/DTD/svg11.dtd"><svg class="icon" width="200px" height="200.00px" viewBox="0 0 1024 1024" version="1.1" xmlns="http://www.w3.org/2000/svg"><path d="M390.656 958.976H162.816c-20.48 0-37.376-16.896-37.376-37.376V102.4c0-20.48 16.896-37.376 37.376-37.376h632.832c20.48 0 37.376 16.896 37.376 37.376v112.128c0 10.24 8.192 18.432 18.432 18.432s18.432-8.192 18.432-18.432V102.4c0-40.96-33.28-74.24-74.24-74.24H162.816c-40.96 0-74.24 33.28-74.24 74.24v819.2c0 40.96 33.28 74.24 74.24 74.24h227.84c10.24 0 18.432-8.192 18.432-18.432s-8.192-18.432-18.432-18.432z" fill="#353535" /><path d="M749.568 232.96c0-10.24-8.192-18.432-18.432-18.432H227.84c-10.24 0-18.432 8.192-18.432 18.432s8.192 18.432 18.432 18.432h502.784c10.24 0.512 18.944-8.192 18.944-18.432z" fill="#353535" /><path d="M887.808 311.808c-44.544-25.6-100.352-12.288-124.928 30.208l-279.04 483.84c-11.776 19.968-19.456 52.736-19.968 82.944-0.512 39.424 11.264 68.096 32.768 80.384 8.192 4.608 17.92 7.168 28.16 7.168 17.408 0 36.864-6.144 57.856-18.944 26.112-15.36 50.176-38.4 61.952-58.368L923.648 435.2c25.088-42.496 8.704-97.792-35.84-123.392z m-7.68 125.44c8.704 5.12 11.776 16.384 6.656 25.6s-16.384 11.776-25.6 6.656l-248.32 430.592c-8.192 14.336-28.16 33.28-48.64 45.056-20.48 12.288-39.424 16.896-48.64 11.264-9.216-5.12-14.848-23.552-14.336-47.616 0.512-23.552 6.656-50.176 14.848-65.024l248.32-430.592c-8.704-5.12-11.776-16.384-6.656-25.6 5.12-8.704 16.384-11.776 25.6-6.656l96.768 56.32z" fill="#6BF3EC" /><path d="M783.36 381.44c-8.704-5.12-20.48-2.048-25.6 6.656s-2.048 20.48 6.656 25.6l96.768 55.808c8.704 5.12 20.48 2.048 25.6-6.656s2.048-20.48-6.656-25.6L783.36 381.44z" fill="#6BF3EC" /><path d="M656.384 419.328c0-10.24-8.192-18.432-18.432-18.432h-409.6c-10.24 0-18.432 8.192-18.432 18.432s8.192 18.432 18.432 18.432h409.6c9.728 0 18.432-8.192 18.432-18.432z m-428.544 168.448c-10.24 0-18.432 8.192-18.432 18.432s8.192 18.432 18.432 18.432h242.176c10.24 0 18.432-8.192 18.432-18.432s-8.192-18.432-18.432-18.432H227.84z" fill="#353535" /></svg>