<?xml version="1.0" standalone="no"?><!DOCTYPE svg PUBLIC "-//W3C//DTD SVG 1.1//EN" "http://www.w3.org/Graphics/SVG/1.1/DTD/svg11.dtd"><svg class="icon" width="200px" height="200.00px" viewBox="0 0 1024 1024" version="1.1" xmlns="http://www.w3.org/2000/svg"><path fill="#ffffff" d="M901.96 901.341c0 31.91-26.107 58.015-58.014 58.015H181.343c-31.908 0-58.015-26.107-58.015-58.015V122.035c0-31.907 26.107-58.014 58.015-58.014h662.602c31.908 0 58.014 26.107 58.014 58.014v779.306z m-39.137-740.564c0-31.908-26.107-58.015-58.015-58.015h-584.51c-31.908 0-58.014 26.107-58.014 58.015v701.689c0 31.909 26.106 58.014 58.014 58.014h584.51c31.908 0 58.014-26.106 58.014-58.014v-701.69z m-96.76 76.891c0-9.572-7.831-17.404-17.405-17.404h-452.51c-9.573 0-17.405 7.831-17.405 17.404v2.9c0 9.572 7.831 17.404 17.404 17.404h452.511c9.572 0 17.405-7.832 17.405-17.404v-2.9z m0.17 136.44c0-9.572-7.832-17.404-17.405-17.404h-452.51c-9.573 0-17.405 7.831-17.405 17.404v2.902c0 9.572 7.831 17.404 17.404 17.404h452.511c9.572 0 17.405-7.831 17.405-17.404v-2.902z m0.056 116.743c0-9.572-7.831-17.404-17.404-17.404h-452.51c-9.572 0-17.405 7.831-17.405 17.404v2.901c0 9.572 7.832 17.405 17.405 17.405h452.51c9.573 0 17.405-7.832 17.405-17.405v-2.9zM432.803 607.018c0-9.572-7.832-17.404-17.405-17.404H296.47c-9.572 0-17.405 7.831-17.405 17.404v2.9c0 9.572 7.832 17.405 17.405 17.405H415.4c9.571 0 17.404-7.832 17.404-17.405v-2.9z m313.666-21.764l-15.632-15.632c-12.675-12.674-32.134-13.766-43.463-2.438L512.447 742.11l61.533 61.533 174.927-174.927c11.33-11.329 10.236-30.787-2.438-43.462zM493.153 761.6v61.57h61.3l0.135-0.135-61.435-61.435z" /></svg>