<?xml version="1.0" standalone="no"?><!DOCTYPE svg PUBLIC "-//W3C//DTD SVG 1.1//EN" "http://www.w3.org/Graphics/SVG/1.1/DTD/svg11.dtd"><svg class="icon" width="200px" height="200.00px" viewBox="0 0 1024 1024" version="1.1" xmlns="http://www.w3.org/2000/svg"><path fill="#333333" d="M896 614.4l-77.568 0c-3.1744-56.2688-16.896-110.2336-39.9872-158.8224 53.0432-15.616 91.904-64.7168 91.904-122.7776 0-14.1312-11.4688-25.6-25.6-25.6s-25.6 11.4688-25.6 25.6c0 38.9632-29.184 71.2704-66.8672 76.1344-8.9088-13.6192-18.688-26.6752-29.2352-39.0144-5.5296-6.4512-11.2128-12.5952-17.0496-18.5344 7.168-22.4768 10.752-45.8752 10.752-69.7856 0-127.0272-103.3728-230.4-230.4-230.4s-230.4 103.3728-230.4 230.4c0 23.9104 3.6352 47.3088 10.752 69.7856-5.8368 5.9392-11.52 12.0832-17.0496 18.5344-10.5984 12.3392-20.3264 25.3952-29.2352 39.0144-37.6832-4.864-66.8672-37.1712-66.8672-76.1344 0-14.1312-11.4688-25.6-25.6-25.6s-25.6 11.4688-25.6 25.6c0 58.0608 38.8608 107.1616 91.904 122.7776-23.0912 48.5888-36.7616 102.5536-39.9872 158.8224l-77.5168 0c-14.1312 0-25.6 11.4688-25.6 25.6s11.4688 25.6 25.6 25.6l77.568 0c3.1744 56.2688 16.896 110.2336 39.9872 158.8224-53.0432 15.616-91.904 64.7168-91.904 122.7776 0 14.1312 11.4688 25.6 25.6 25.6s25.6-11.4688 25.6-25.6c0-38.9632 29.184-71.2704 66.8672-76.1344 8.9088 13.6192 18.688 26.6752 29.2352 39.0144 62.976 73.472 146.9952 113.92 236.6464 113.92s173.7216-40.448 236.6464-113.92c10.5984-12.3392 20.3264-25.3952 29.2352-39.0144 37.6832 4.864 66.8672 37.1712 66.8672 76.1344 0 14.1312 11.4688 25.6 25.6 25.6s25.6-11.4688 25.6-25.6c0-58.0608-38.8608-107.1616-91.904-122.7776 23.0912-48.5888 36.7616-102.5536 39.9872-158.8224l77.5168 0c14.1312 0 25.6-11.4688 25.6-25.6s-11.4688-25.6-25.6-25.6zM486.4 102.4c98.816 0 179.2 80.384 179.2 179.2 0 11.008-0.9728 21.8112-2.9184 32.4608-52.3264-37.7856-112.896-58.0608-176.2816-58.0608s-123.9552 20.224-176.2816 58.0608c-1.9456-10.6496-2.9184-21.4528-2.9184-32.4608 0-98.816 80.384-179.2 179.2-179.2zM204.8 640c0-173.312 112.6912-316.0576 256-331.4176l0 662.8352c-143.3088-15.36-256-158.1056-256-331.4176zM512 971.4176l0-662.8352c143.3088 15.36 256 158.1056 256 331.4176s-112.6912 316.0576-256 331.4176z" /></svg>