<?xml version="1.0" standalone="no"?><!DOCTYPE svg PUBLIC "-//W3C//DTD SVG 1.1//EN" "http://www.w3.org/Graphics/SVG/1.1/DTD/svg11.dtd"><svg class="icon" width="200px" height="200.00px" viewBox="0 0 1024 1024" version="1.1" xmlns="http://www.w3.org/2000/svg"><path fill="#ffffff" d="M783.36 762.368l141.824 141.824a51.2 51.2 0 0 1 0 72.192 51.2 51.2 0 0 1-72.192 0l-132.608-132.096A306.688 306.688 0 0 1 563.2 921.6V462.848a51.2 51.2 0 0 0-102.4 0V921.6a306.176 306.176 0 0 1-157.184-77.312l-132.608 132.096a51.2 51.2 0 0 1-72.192 0 51.2 51.2 0 0 1 0-72.192l141.824-141.824A304.64 304.64 0 0 1 208.384 665.6H51.2a51.2 51.2 0 1 1 0-102.4h153.6V430.592L47.616 273.408a51.2 51.2 0 0 1 0-72.192 51.2 51.2 0 0 1 72.192 0l107.52 107.52h569.344l107.52-107.52a51.2 51.2 0 0 1 72.192 0 51.2 51.2 0 0 1 0 72.192L819.2 430.592V563.2h153.6a51.2 51.2 0 1 1 0 102.4h-157.184c-5.12 34.304-16.384 67.072-32.256 96.768zM768 256H256a256 256 0 1 1 512 0z"  /></svg>