<?xml version="1.0" standalone="no"?><!DOCTYPE svg PUBLIC "-//W3C//DTD SVG 1.1//EN" "http://www.w3.org/Graphics/SVG/1.1/DTD/svg11.dtd"><svg class="icon" width="200px" height="200.00px" viewBox="0 0 1024 1024" version="1.1" xmlns="http://www.w3.org/2000/svg"><path fill="#333333" d="M823.500035 824.022433 240.388441 824.022433c-11.30344 0-20.466124-9.162684-20.466124-20.466124l0-36.399001c0-2.310625 0.390903-4.603855 1.156336-6.783497 14.58109-41.507346 58.094116-73.329099 129.333624-94.583169 41.872666-12.492522 80.676437-17.453511 93.399203-18.84316 1.585101-1.044796 2.50096-2.098801 2.732228-3.149736 1.322112-6.003737-5.39794-19.301602-12.257162-27.480888-0.712221-0.836041-1.347694-1.719154-1.906419-2.638083-24.079418-20.228717-44.193525-48.00841-59.001789-81.427544-22.660092-0.659009-42.8489-21.980617-50.462299-53.475935-8.073886-33.502022 1.737574-64.187905 22.941502-74.53967-1.822508-63.831794 13.897521-114.183576 46.838771-149.875472 32.834826-35.576263 80.986499-54.381561 139.247414-54.381561 61.566194 0 108.707864 16.817014 140.117225 49.983391 31.185256 32.929993 46.676066 81.740676 46.15111 145.266501 21.088294 10.385535 30.819936 40.947598 22.762423 74.376964-7.099698 29.484521-25.208125 50.062186-46.059012 53.128011-15.121396 37.922704-36.877909 69.160149-63.699788 91.400686-0.509606 0.794086-1.070378 1.550309-1.681292 2.264577-6.833639 8.181333-13.505595 21.413706-12.1886 27.399023 0.232291 1.050935 1.14815 2.106987 2.733251 3.15076 12.723789 1.38965 51.525514 6.350638 93.39818 18.84316 71.237461 21.25407 114.75151 53.075823 129.3326 94.583169 0.765433 2.179642 1.156336 4.472871 1.156336 6.783497l0 36.399001C843.966159 814.859749 834.803475 824.022433 823.500035 824.022433zM260.854565 783.090185l542.179346 0 0-12.150738c-14.141068-33.650401-62.544475-54.375421-101.258195-65.925479-46.161343-13.771655-89.180112-17.691941-89.6099-17.729803-2.394537-0.211824-4.731768-0.843204-6.907317-1.866511-24.431435-11.492752-34.245965-34.161031-26.254967-60.637032 2.408863-7.979742 6.377244-16.249079 11.795651-24.577768 0.528026-0.811482 1.062192-1.633197 1.606591-2.452865 1.167592-4.301979 3.733021-8.212032 7.476275-11.018961 27.054169-20.282952 48.5129-52.426023 62.058404-92.954065 1.983167-5.932106 6.569626-10.633175 12.452613-12.759605 5.01113-1.812275 10.492982-1.586125 15.295358 0.555655 2.88163-2.251274 8.506744-9.153474 11.491729-21.555945 3.13234-12.990872 1.178849-22.926152-0.74292-26.938536-5.535063 0.876973-11.270694-0.544399-15.768125-4.03285-5.308913-4.116761-8.292873-10.56666-7.927553-17.274432 3.327792-61.075007-8.246825-106.046245-34.400484-133.665279-23.702841-25.029046-59.814294-37.196157-110.397343-37.196157-32.451086 0-77.732385 7.14984-109.168352 41.209564-28.175713 30.529317-39.966247 77.105099-35.042097 138.434909 0.556679 6.927783-2.441609 13.664208-7.959276 17.888416-4.687766 3.589758-10.654664 4.949732-16.35448 3.837398-1.919722 4.090155-3.825119 13.978363-0.713244 26.889417 2.855024 11.811 8.113795 18.627243 11.106965 21.187555 4.721535-3.222391 10.631128-4.351098 16.280802-3.004427 6.680143 1.592264 12.120039 6.42534 14.478759 12.874215 13.732769 37.543058 34.372855 67.464531 59.689451 86.530772 3.838422 2.89084 6.433526 6.946202 7.543813 11.390421 8.016581 11.69332 19.371186 32.907481 14.747889 54.284347-2.180666 10.082636-8.795317 23.988344-27.926026 32.985252-2.174526 1.022283-4.511757 1.653663-6.90527 1.865487-0.424672 0.037862-44.022633 4.053316-90.208535 17.909905-38.47222 11.541871-86.574774 32.223912-100.659561 65.745377L260.854565 783.090185z" /></svg>