<?xml version="1.0" standalone="no"?><!DOCTYPE svg PUBLIC "-//W3C//DTD SVG 1.1//EN" "http://www.w3.org/Graphics/SVG/1.1/DTD/svg11.dtd"><svg class="icon" width="200px" height="200.00px" viewBox="0 0 1024 1024" version="1.1" xmlns="http://www.w3.org/2000/svg"><path fill="#333333" d="M849.6 284.8L643.2 78.4c-9.6-9.6-20.8-14.4-33.6-14.4H240c-44.8 0-80 35.2-80 80v736c0 44.8 35.2 80 80 80h544c44.8 0 80-35.2 80-80V318.4c0-12.8-4.8-24-14.4-33.6zM816 880c0 17.6-14.4 32-32 32H240c-17.6 0-32-14.4-32-32V144c0-17.6 14.4-32 32-32h369.6L816 318.4V880z"  /><path fill="#333333" d="M608 320V80h-48v288h288v-48zM736 624H288c-9.6 0-16 6.4-16 16s6.4 16 16 16h448c9.6 0 16-6.4 16-16s-6.4-16-16-16zM736 448H288c-9.6 0-16 6.4-16 16s6.4 16 16 16h448c9.6 0 16-6.4 16-16s-6.4-16-16-16zM288 304h192c9.6 0 16-6.4 16-16s-6.4-16-16-16H288c-9.6 0-16 6.4-16 16s6.4 16 16 16z"  /></svg>