<?xml version="1.0" standalone="no"?><!DOCTYPE svg PUBLIC "-//W3C//DTD SVG 1.1//EN" "http://www.w3.org/Graphics/SVG/1.1/DTD/svg11.dtd"><svg class="icon" width="200px" height="200.00px" viewBox="0 0 1024 1024" version="1.1" xmlns="http://www.w3.org/2000/svg"><path fill="#333333" d="M383.008672 791.449573c-4.367471-0.930185-8.789177-1.658779-13.092179-2.824325-35.811624-9.702989-60.483536-41.84606-60.506049-79.024821-0.057305-91.449805-0.019443-182.901657-0.019443-274.352485v-5.396917c-7.077186 3.015683-13.676487 5.822612-20.271696 8.640798-8.888438 3.799536-17.754363 7.650237-26.663266 11.399631-9.564843 4.025687-15.265682 2.515287-21.296025-5.778611a82091.757852 82091.757852 0 0 1-82.37001-113.463167c-7.237845-9.988492-4.843308-18.534122 6.638188-23.556509 59.874669-26.190499 119.759571-52.358485 179.687452-78.429257 9.194406-4.000104 18.573008-7.599072 27.980261-11.078313 3.122107-1.155313 6.598278-1.352811 9.912767-1.988284h44.169989c7.395434 3.476171 10.859325 9.477862 11.362792 17.467837 0.160659 2.559289 0.549515 5.113461 0.971117 7.646144 5.963829 35.789111 45.393863 77.399811 97.121992 55.927777 26.995841-11.205203 41.323151-32.377408 46.481637-60.061934 1.645476-8.828063 2.741437-16.796548 11.746532-20.979824h44.988634c8.205892 2.25946 16.797571 3.617387 24.549115 6.935969 33.785477 14.464433 67.305919 29.544897 100.960413 44.316322 29.547966 12.968359 59.146075 25.822109 88.718601 38.731116 1.62194 0.707105 3.248997 1.409093 4.843308 2.174526 9.581216 4.594645 11.983939 13.175067 5.843079 21.886473-7.379061 10.467399-15.013949 20.754696-22.537296 31.120788-19.767206 27.238364-39.518039 54.489008-59.33027 81.694627-1.7519 2.403746-3.632737 4.854565-5.92699 6.691399-4.895497 3.921309-10.346649 3.451612-15.829523 1.093915a26310.103894 26310.103894 0 0 0-43.167149-18.50854c-1.340531-0.573051-2.724041-1.041726-4.50664-1.717107v5.230118c0 91.178629 0.039909 182.356234-0.01842 273.534863-0.024559 39.242769-25.749454 71.708182-63.676251 80.626295-3.285836 0.773619-6.614651 1.36509-9.923001 2.040473l-256.841669 0.001023zM186.971857 325.585333c0.682545 1.112334 1.057075 1.827625 1.526773 2.474355 22.497387 30.986735 45.035706 61.944817 67.446111 92.994997 1.757017 2.434445 3.158946 2.544963 5.693676 1.439792 16.727986-7.287987 33.747615-13.947663 50.223868-21.756513 13.826913-6.553253 22.514783 1.676176 22.428826 14.538111-0.654916 97.866958-0.391926 195.73801-0.341785 293.609061 0.017396 32.81129 25.237801 57.989739 58.067511 58.009182 79.605036 0.048095 159.209048 0.033769 238.814084-0.036839 4.194532-0.00307 8.477069-0.353041 12.568246-1.236154 27.244504-5.880941 45.511543-28.845978 45.518707-57.134255 0.027629-86.829578 0.016373-173.659155 0.005116-260.488733-0.001023-12.4608-0.074701-24.920576-0.11461-37.380352-0.01842-5.585205 3.437286-10.855232 8.918113-11.667737 3.679809-0.545422 7.958252-0.055259 11.405771 1.350764 17.271362 7.043417 34.402531 14.437827 51.469232 21.970384 3.330862 1.471514 4.88424 0.788969 6.897084-2.00261 21.918195-30.398334 43.970444-60.69843 65.979714-91.03025 0.784876-1.079588 1.50119-2.208295 2.354627-3.470031-0.849344-0.468674-1.407046-0.836041-2.00875-1.099031-60.524468-26.423813-121.156384-52.604078-181.50382-79.425957-14.362102-6.383384-28.895097-4.703115-43.7402-5.055133-3.540639 24.2718-13.93743 44.671409-31.407314 61.312414-17.555841 16.72287-38.413891 26.077935-62.781882 26.882254-20.939915 0.690732-40.21491-4.733814-57.344033-16.95209-24.534789-17.499559-38.991036-41.310871-43.633776-71.039963-9.496282 0-18.745946-0.141216-27.986401 0.089028-2.641153 0.065492-5.414313 0.844228-7.860015 1.907442-42.077328 18.295692-84.111676 36.68962-126.157282 55.056944-21.328771 9.320273-42.660612 18.631336-64.437591 28.14092z"  /></svg>