<?xml version="1.0" standalone="no"?><!DOCTYPE svg PUBLIC "-//W3C//DTD SVG 1.1//EN" "http://www.w3.org/Graphics/SVG/1.1/DTD/svg11.dtd"><svg class="icon" width="200px" height="200.00px" viewBox="0 0 1024 1024" version="1.1" xmlns="http://www.w3.org/2000/svg"><path fill="#ffffff" d="M697.04732 962.007087l-31.090089-0.309038-347.034854 0.142239c-18.637476 0-39.903825-0.880043-56.257282-11.513218-10.169617-6.375198-23.608697-19.219737-29.782303-35.514865-4.995781-13.344936-4.828982-27.878954-4.674463-41.937134l0.047072-69.982888V520.833179a88.988754 88.988754 0 0 1-11.95324 5.994528c-20.374026 8.456602-48.25298 4.114714-68.352761-9.836019-7.124258-5.042853-12.416797-10.514471-17.07898-15.331174l-10.692527-10.525727-37.20332-35.752272a2175.512139 2175.512139 0 0 1-20.374026-20.611434c-6.339382-5.423523-12.143575-11.322883-17.935488-17.245779l-6.220678-6.303566c-1.772366-1.74883-3.699252-3.496637-5.590322-5.245468-8.230452-7.528464-18.470677-16.900925-24.953322-31.792077-3.544733-7.93267-10.180873-22.76447-7.064906-38.999222 5.542226-29.448706 23.597441-45.528939 38.107923-58.446134 5.030573-4.448312 8.587586-8.111748 12.155855-11.750625 4.103458-4.175089 8.206916-8.349155 12.54778-12.238742L228.054833 91.8755c7.707542-7.862062 18.173918-18.530029 33.873482-24.596187l24.35878-5.935176s67.409273-4.474918 89.274256 0c7.894807 1.6158 22.633486 9.66922 28.794814 14.486946 9.217942 7.088442 15.771195 15.532765 21.551851 22.97834l1.558496 1.998517c4.662183 5.970992 15.807011 13.68979 25.916253 17.935488 11.965519 4.959965 25.571399 8.111748 42.163285 11.239995l19.755949 1.248434c3.520173 0 8.646937-0.666172 14.45113-1.87879 32.041764-6.446829 44.957935-10.81123 63.536059-25.619494 1.641383-1.320065 4.02057-4.555759 6.327102-7.682983 4.114714-5.613858 9.253758-12.607132 16.960277-18.304902l18.649756-12.048407c3.972475-1.558495 12.148691-3.969405 15.627932-4.579295 6.834662-1.197268 59.635215 0 66.152652 0 24.001647 0 39.011502 2.104941 50.144051 7.957229 12.56006 6.779404 21.647019 15.842827 29.63904 23.834848l154.308435 150.883429c6.303566 6.732331 12.274558 12.249999 18.220991 17.793248 7.064906 6.576789 14.129812 13.165858 20.647249 20.243043 1.664919 1.760087 3.544733 3.62762 5.399986 5.470595 8.563026 8.480138 19.219737 19.041682 25.381064 36.22811l1.379417 6.553253c0.143263 2.295276 0.237407 4.590552 0.285502 6.898107 3.900843 28.211529-11.584849 47.812959-17.507745 55.293327l-2.117221 2.354627-97.957009 95.590102c-12.916171 14.605649-30.637788 34.610262-57.875129 39.653115-21.765723 4.031826-38.677904-1.296529-51.737338-9.122774v282.760992c-0.047072 31.494295-0.190335 63.036685-0.357134 94.459348l-0.499373 4.828982c-3.425006 16.437367-13.392008 32.707936-26.070772 42.460044-20.361747 15.464203-47.432289 16.749476-71.243601 16.749476z m-358.035396-49.0266l358.036419 0.309039c9.800203 0 32.803103 0 41.675169-6.732332 2.544963-1.973958 5.922896-6.946202 7.445575-11.775184 0.143263-30.400381 0.285502-60.895929 0.332575-91.319845V461.32997l31.447223-21.503756 26.451442 25.666566c12.630668 12.405541 20.361747 18.958794 33.706683 16.473183 10.728342-1.986237 21.099551-13.701047 30.257117-24.037463l2.973728-3.354397 96.267531-93.699032c5.780657-7.528464 7.42204-12.131295 6.470365-17.780969l-0.332575-3.544732c0-0.808412-0.023536-1.617847-0.047072-2.426259-2.449795-5.007037-6.28003-8.955976-12.607132-15.223727-2.235924-2.223644-4.495384-4.471848-6.755868-6.838755-5.875824-6.375198-12.036128-12.084223-18.197454-17.804505-6.80294-6.339382-13.606903-12.691043-19.910469-19.470447l-153.83362-150.396335c-6.208399-6.184863-12.060687-12.036128-18.149359-15.318894-0.642636-0.332575-6.136767-2.628874-27.236318-2.628873-6.089695 0-12.274558 0.166799-18.22099 0.321318-5.89936 0.154519-11.56029 0.297782-16.698311 0.297782H662.581344c-2.830465 0.880043-5.256724 1.248434-7.016811 1.486864l-10.799973 6.030343c-1.688455 1.593288-3.805676 4.495384-5.899361 7.314593-3.758604 5.125741-8.420787 11.489682-15.128558 16.877389-26.427906 21.040199-47.337121 27.891234-84.207867 35.31225-13.344936 2.771113-24.536836 3.568269-33.504069 2.200109l-17.899672-1.12973c-20.291139-3.76986-37.143968-7.671727-53.497424-14.451131-14.355963-6.030343-33.754778-17.804505-45.552476-32.909527l-1.641383-2.104941c-4.579295-5.887081-8.515954-10.965749-12.928451-14.355962-1.153266-0.642636-2.984984-1.153266-4.76963-1.783623a128.432091 128.432091 0 0 1-6.422269-2.485611h-61.788252l-14.43885 1.237177c-9.753131 0.321318-14.486946 4.733814-24.239054 14.688538l-29.829376 29.27065-136.066979 133.029806c-4.329609 3.913123-7.695263 7.373944-11.073196 10.81123-4.376681 4.471848-8.789177 8.93244-13.46364 13.059434-14.320147 12.761652-21.349237 19.505239-23.716144 32.113395 0 1.795902 2.331092 7.005554 3.318582 9.229198 2.794649 6.386454 6.815219 10.216689 13.725606 16.543792 2.318812 2.117221 4.662183 4.270257 6.946202 6.517437l6.826476 6.910386c4.983501 5.102205 9.931187 10.216689 15.414061 14.843057l1.795903 1.664919c6.743588 6.933923 13.546527 13.796214 20.33821 20.600177l48.823986 47.206138c3.651157 3.78214 6.80294 7.04137 10.014074 9.31311 4.888334 3.390213 16.020882 7.077186 21.860891 4.674463 9.134031-3.746324 16.294105-10.965749 24.583908-19.327184 4.15053-4.186346 19.660782-21.331841 19.660782-21.331841l34.967396 20.213367-0.059352 412.092569c-0.095167 9.134031-0.213871 19.481703 1.558495 24.215518 1.332345 3.520173 6.208399 8.991792 10.394745 11.608386 5.970992 3.877307 24.096814 3.877307 30.055526 3.877307l20.088524-0.14224z" /></svg>