<?xml version="1.0" standalone="no"?><!DOCTYPE svg PUBLIC "-//W3C//DTD SVG 1.1//EN" "http://www.w3.org/Graphics/SVG/1.1/DTD/svg11.dtd"><svg class="icon" width="200px" height="200.00px" viewBox="0 0 1024 1024" version="1.1" xmlns="http://www.w3.org/2000/svg"><path fill="#ffffff" d="M950.926 506.714l-407.623-409.262c-0.077-0.077-0.137-0.164-0.213-0.24-0.082-0.082-0.17-0.147-0.252-0.229l-0.35-0.35c-14.439-14.532-37.853-14.532-52.287 0-1.878 1.89-3.495 3.938-4.887 6.090l-402.954 404.576c-14.439 14.532-14.439 38.109 0 52.647 8.81 8.869 20.961 12.293 32.374 10.343l63.603-0.147c35.215 1.71 40.911 9.907 41.807 49.229l-0.322-49.19-14.38-0.098 15.477-0.038 0.278 304.175c3.261 38.082 34.947 67.978 73.613 67.978h73.947c40.839 0 73.947-33.335 73.947-74.449v-39.556h0.229l-0.098-66.7 0.126-5.827c-0.049 0.618-0.087 1.273-0.131 1.917l-0.060-38.437h0.983l-0.791 36.526c2.288-28.355 10.775-35.018 41.468-36.586l61.839-0.093c33.095 1.463 41.9 8.378 44.155 40.965l-0.884-40.873-19.076-0.126 20.196-0.033 0.071 46.803c-0.093-1.977-0.175-3.954-0.306-5.773l0.317 14.724 0.147 99.118c3.069 38.278 34.827 68.398 73.635 68.398h73.952c40.839 0 73.941-33.335 73.941-74.449v-39.556h0.273l-0.262-258.79c0-20.562-16.548-37.219-36.973-37.219-20.415 0-36.973 16.662-36.973 37.219l0.235 228.054-0.147 22.069c0.098-4.271 0.137-8.957 0.153-13.998l0.065 62.314h-0.546l0.327-48.322c-0.847 36.307-6.106 45.635-37.951 48.016-36.619-2.802-35.772-15.537-35.772-73.641l-0.115 13.058-0.071-47.393h-0.131v-39.551c0-41.118-33.106-74.454-73.941-74.454h-36.973v-1.033l-73.941 0.115v0.923h-36.973c-40.359 0-73.105 32.566-73.87 73.018l0.142 96.862c-0.42 40.201-4.205 49.856-36.951 52.177-26.346-1.895-34.445-8.71-36.918-32.855l-0.208-224.1h-0.082v-39.551c0-41.118-33.106-74.454-73.941-74.454h-23.189l319.253-320.531 381.709 383.233c14.439 14.538 37.847 14.538 52.282 0 14.439-14.532 14.439-38.109 0-52.642zM664.818 867.85l17.804 0.115-17.804 0.044v-0.158zM295.134 867.85l17.902 0.115-17.902 0.044v-0.158zM220.146 619.359l0.175 27.088c0-10.382 0-19.323-0.175-27.088z" /></svg>