<?xml version="1.0" standalone="no"?><!DOCTYPE svg PUBLIC "-//W3C//DTD SVG 1.1//EN" "http://www.w3.org/Graphics/SVG/1.1/DTD/svg11.dtd"><svg class="icon" width="200px" height="200.00px" viewBox="0 0 1024 1024" version="1.1" xmlns="http://www.w3.org/2000/svg"><path fill="#333333" d="M893.563764 260.120342L510.500345 86.275969c-17.160845-4.158716-34.894741 0.700965-53.409421 13.791098L229.836107 455.196273c-7.573489 12.740162-30.425963 47.455825 2.451842 62.909795 12.652158 5.910617 26.617218-3.982708 33.227775-15.889899L487.250828 150.761656l389.414057 194.682981-263.45939 404.469961S532.214902 878.011045 474.776725 857.171414c-16.945951-6.128581-31.957853-18.824741-36.733622-28.368095-5.865591-5.079692-14.836917-19.000749-16.285918-25.74229-5.993504-27.843138-4.329609-48.069809 16.94595-85.237313 0 0-95.568612-49.075719-135.23196-73.41608-34.760688-21.276582-134.925992-94.211708-134.925993-94.211709l0.305969-0.350994-87.163175-61.333903-11.82021 39.09439c-16.066931 61.464887-9.67536 122.360815 31.957852 162.331155l308.771389 224.582965c57.087183 32.311917 109.398596 26.358321 155.151639-0.132007 52.399417-30.335912 125.031645-141.095505 137.638777-161.146167l197.394743-313.806055c52.145637-81.513502 101.130282-129.932258-7.218402-179.314969z m-382.187469-15.409968c-22.724561-4.815679-44.87607 10.288321-49.557696 33.796734-4.688789 23.552415 9.934257 46.580898 32.611745 51.439556 22.63758 4.859681 44.828998-10.244318 49.515741-33.796734 4.682649-23.508413-9.939373-46.535873-32.56979-51.439556zM363.098203 472.00817c-22.633486-4.815679-44.828998 10.244318-49.513693 33.751709-4.684696 23.553439 9.894348 46.537919 32.614815 51.440579 22.677489 4.860704 44.830021-10.244318 49.513694-33.796734 4.684696-23.465434-9.937326-46.492894-32.614816-51.395554z m74.156954-113.648386c-22.718421-4.903683-44.86993 10.244318-49.5096 33.796734-4.728698 23.553439 9.894348 46.578852 32.571836 51.39453 22.630417 4.903683 44.828998-10.243295 49.510624-33.794687 4.686742-23.509437-9.93528-46.535873-32.57286-51.396577z m281.282315 77.618799c18.60166 8.974395 40.888246 0.481977 49.557695-18.824741l0.740874-1.705852c8.627495-19.35072 0.485047-42.465161-18.124799-51.483558l-109.311615-52.709479c-18.609847-9.018398-40.888246-0.525979-49.557696 18.824741l-0.748037 1.662873c-8.620331 19.35072-0.477884 42.466184 18.1248 51.483558l109.318778 52.752458z m-201.77961 10.812253l-0.828878 1.662872c-9.369392 19.000749-2.101871 42.465161 16.10991 52.184523l107.256816 57.262169c18.212804 9.719362 40.802288 2.188852 50.210565-16.766873l0.833994-1.706874c9.369392-18.912745 2.101871-42.37818-16.156981-52.141544L566.974567 430.067966c-18.257829-9.762341-40.847314-2.231831-50.216705 16.72287z m-26.13217 103.931071c-17.950837-10.288321-40.761356-3.414773-50.609655 15.321963l-0.874927 1.620917c-9.894348 18.693758-3.239787 42.334177 14.749936 52.621475l105.680924 60.283991c17.949814 10.244318 40.761356 3.326768 50.607608-15.322987l0.874927-1.663896c9.854439-18.694781 3.240811-42.377156-14.748912-52.622497l-105.679901-60.238966z" /></svg>