<?xml version="1.0" standalone="no"?><!DOCTYPE svg PUBLIC "-//W3C//DTD SVG 1.1//EN" "http://www.w3.org/Graphics/SVG/1.1/DTD/svg11.dtd"><svg class="icon" width="200px" height="200.00px" viewBox="0 0 1024 1024" version="1.1" xmlns="http://www.w3.org/2000/svg"><path fill="#ffffff" d="M78.762667 236.309333v708.885334h708.906666V236.309333H78.762667z m0-78.762666h708.906666a78.976 78.976 0 0 1 78.762667 78.762666v708.885334a78.976 78.976 0 0 1-78.762667 78.762666H78.762667A78.976 78.976 0 0 1 0 945.194667V236.309333a78.976 78.976 0 0 1 78.762667-78.762666z m157.546666 236.288h393.834667c23.616 0 39.381333 15.765333 39.381333 39.402666 0 23.616-15.765333 39.36-39.381333 39.36H236.309333c-23.637333 0-39.381333-15.744-39.381333-39.36 0-23.637333 15.744-39.402667 39.381333-39.402666z m0 157.525333h393.834667c23.616 0 39.381333 15.765333 39.381333 39.402667 0 23.616-15.765333 39.381333-39.381333 39.381333H236.309333c-23.637333 0-39.381333-15.765333-39.381333-39.381333 0-23.637333 15.744-39.402667 39.381333-39.402667z m0 157.546667h393.834667c23.616 0 39.381333 15.744 39.381333 39.381333s-15.765333 39.381333-39.381333 39.381333H236.309333c-23.637333 0-39.381333-15.744-39.381333-39.381333s15.744-39.381333 39.381333-39.381333z m39.381334-630.122667c-23.637333 0-39.381333-15.765333-39.381334-39.381333 0-23.637333 15.744-39.381333 39.381334-39.381334H905.813333c66.965333 0 118.165333 51.2 118.165334 118.144v630.122667c0 23.637333-15.765333 39.381333-39.381334 39.381333-23.637333 0-39.402667-15.744-39.402666-39.381333V118.165333c0-23.637333-15.744-39.381333-39.381334-39.381333H275.690667z" /></svg>