<?xml version="1.0" standalone="no"?><!DOCTYPE svg PUBLIC "-//W3C//DTD SVG 1.1//EN" "http://www.w3.org/Graphics/SVG/1.1/DTD/svg11.dtd"><svg class="icon" width="200px" height="200.00px" viewBox="0 0 1024 1024" version="1.1" xmlns="http://www.w3.org/2000/svg"><path fill="#ffffff" d="M262.042686 270.509682l414.231519 0L262.042686 270.509682zM676.274205 285.533173 262.042686 285.533173c-8.278841 0-14.994544-6.715703-14.994544-14.994544 0-8.278841 6.715703-14.994544 14.994544-14.994544l414.231519 0c8.278841 0 14.994544 6.715703 14.994544 14.994544C691.297696 278.81747 684.553046 285.533173 676.274205 285.533173L676.274205 285.533173zM262.042686 487.583208l414.231519 0L262.042686 487.583208zM676.274205 502.577753 262.042686 502.577753c-8.278841 0-14.994544-6.715703-14.994544-14.994544s6.715703-14.994544 14.994544-14.994544l414.231519 0c8.278841 0 14.994544 6.715703 14.994544 14.994544C691.297696 495.862049 684.553046 502.577753 676.274205 502.577753L676.274205 502.577753zM518.860438 719.680226 262.042686 719.680226c-8.278841 0-14.994544-6.715703-14.994544-14.994544 0-8.307788 6.715703-14.994544 14.994544-14.994544l256.817753 0C518.686756 702.138346 518.860438 719.680226 518.860438 719.680226zM891.7267 794.595053c4.42889 6.049922 10.247237 10.391972 17.426092 13.026148 1.678926 0.955251 3.126276 1.910502 4.313102 2.865753 2.634177 2.142078 4.42889 4.863095 5.384141 8.192 0.492099 2.865753 0.347364 6.310445-0.347364 10.334078-0.723675 4.05258-1.910502 8.134106-3.589428 12.302473s-3.705216 7.90253-6.107816 11.231435-5.036777 5.702558-7.90253 7.120961-5.384141 2.142078-7.555166 2.142078c-2.171025 0-4.544678-0.463152-7.178855-1.418403-2.402601-0.694728-5.384141-1.360509-9.002516-1.968396-3.589428-0.607887-7.265696-0.723675-10.970912-0.347364-3.705216 0.347364-7.439378 1.128933-11.144594 2.31576s-6.889385 3.213117-9.523562 6.049922c-5.760452 5.934134-9.118304 12.707731-10.073555 20.320792-0.955251 7.61306 0.115788 14.849809 3.242064 21.739194 2.402601 4.747307 2.02629 9.523562-1.071039 14.270869-1.44735 1.910502-3.705216 3.878898-6.831491 5.87624-3.126276 2.02629-6.542021 3.878898-10.247237 5.528876-3.705216 1.678926-7.61306 2.981541-11.694587 3.907845-4.081527 0.955251-7.670954 1.418403-10.79723 1.418403-2.171025 0-4.197314-0.839463-6.107816-2.489442-1.910502-1.678926-3.242064-3.444693-3.965739-5.355194l-0.347364 0c-2.634177-7.381484-7.120961-13.720876-13.4893-19.076071s-13.720876-8.018318-22.115505-8.018318c-8.163053 0-15.51559 2.663124-22.115505 8.018318-6.599915 5.355194-11.202488 11.578799-13.836664 18.728707-1.215774 2.865753-3.010488 4.920989-5.384141 6.252551-2.402601 1.302615-5.036777 1.968396-7.90253 1.968396-3.357852 0-7.120961-0.607887-11.318276-1.794714s-8.394629-2.663124-12.591943-4.457837c-4.197314-1.794714-7.960424-3.849951-11.318276-6.252551-3.357852-2.373654-5.87624-4.747307-7.555166-7.120961-1.186827-1.649979-1.852608-3.618375-1.968396-5.87624-0.115788-2.257866 0.781569-5.413088 2.692071-9.436721 2.634177-5.470982 3.647322-11.694587 3.068382-18.728707-0.607887-7.005173-3.647322-13.4893-9.176198-19.423435-3.357852-3.560481-7.439378-5.87624-12.215633-6.947279-4.805201-1.071039-9.34988-1.476297-13.662982-1.244721-5.036777 0.231576-10.189343 1.186827-15.457696 2.865753-3.357852 0.955251-6.715703 0.723675-10.073555-0.723675-2.634177-0.955251-5.094671-3.155223-7.381484-6.599915-2.286813-3.444693-4.313102-7.236749-6.107816-11.405117s-3.18417-8.452523-4.13942-12.823519c-0.955251-4.399943-1.186827-8.018318-0.723675-10.884071 0.723675-5.239406 3.126276-8.568311 7.207802-9.986714 7.178855-2.865753 13.662982-7.555166 19.423435-14.097187s8.626205-13.836664 8.626205-21.941823c0-8.307788-2.865753-15.573484-8.626205-21.739194-5.760452-6.194657-12.215633-10.710389-19.423435-13.547194-2.171025-0.723675-3.965739-2.431548-5.384141-5.181512-1.44735-2.749965-2.171025-5.528876-2.171025-8.365682 0-3.097329 0.492099-6.542021 1.44735-10.334078 0.955251-3.821004 2.228919-7.497272 3.76311-11.057753 1.563138-3.560481 3.357852-6.831491 5.384141-9.813032 2.02629-2.981541 4.255208-5.181512 6.657809-6.599915 1.910502-1.186827 3.76311-1.678926 5.58677-1.418403 1.794714 0.231576 3.76311 0.723675 5.934134 1.418403 7.178855 2.836806 14.676127 3.734163 22.462869 2.663124s14.676127-4.457837 20.668155-10.160396c2.865753-2.865753 4.978883-6.368339 6.281498-10.50776 1.331562-4.168367 2.171025-8.249894 2.518389-12.302473s0.347364-7.728848 0-11.057753-0.665781-5.702558-0.897357-7.120961c-0.492099-1.418403-0.897357-3.097329-1.273668-4.978883-0.347364-1.910502-0.173682-3.560481 0.549993-4.978883 1.44735-3.328905 4.023633-6.252551 7.728848-8.741993s7.728848-4.573625 12.041951-6.252551c4.313102-1.678926 8.510417-2.8947 12.591943-3.734163 4.081527-0.839463 7.32359-1.244721 9.697244-1.244721 3.126276 0 5.58677 1.013145 7.381484 3.039435 1.794714 2.02629 3.068382 4.110473 3.76311 6.223604 2.634177 6.426233 6.947279 12.070898 12.939307 16.933993s13.055095 7.294643 21.218148 7.294643c8.394629 0 15.834007-2.31576 22.289187-6.947279 6.484127-4.631519 11.028806-10.50776 13.662982-17.657668 0.955251-1.910502 2.460495-3.878898 4.486784-5.87624 2.02629-2.02629 4.13942-3.039435 6.281498-3.039435 3.357852 0 7.005173 0.463152 10.970912 1.418403 3.965739 0.955251 7.844636 2.257866 11.694587 3.936792 3.821004 1.678926 7.381484 3.792057 10.594601 6.426233 3.242064 2.60523 5.818346 5.470982 7.728848 8.568311 1.186827 1.910502 1.563138 3.994686 1.071039 6.252551s-0.955251 3.849951-1.44735 4.805201c-3.126276 6.889385-4.081527 14.155081-2.865753 21.739194 1.215774 7.61306 4.689413 14.270869 10.420919 19.973428 5.760452 5.702558 12.823519 8.857781 21.218148 9.436721 8.394629 0.607887 16.181371-0.781569 23.360226-4.081527 1.910502-1.186827 4.255208-1.678926 7.005173-1.418403 2.749965 0.231576 5.094671 1.302615 7.005173 3.213117 3.589428 3.328905 6.773597 8.394629 9.523562 15.168226 2.749965 6.773597 4.602572 13.605088 5.58677 20.494473 0.492099 4.05258-0.173682 7.178855-1.968396 9.436721-1.794714 2.257866-3.647322 3.734163-5.58677 4.457837-7.439378 2.60523-13.77877 7.178855-19.047124 13.720876-5.268353 6.542021-7.90253 13.952452-7.90253 22.289187C885.06889 781.453117 887.268862 788.516184 891.7267 794.595053L891.7267 794.595053M807.20147 718.29077c-7.063067-7.005173-15.399802-12.534049-24.981258-16.586629-9.581456-4.05258-19.770799-6.049922-30.568028-6.049922s-20.928678 2.02629-30.394346 6.049922c-9.465668 4.05258-17.744509 9.581456-24.807576 16.586629s-12.649837 15.22612-16.731364 24.604947c-4.081527 9.378827-6.107816 19.423435-6.107816 30.133823s2.055237 20.754996 6.107816 30.133823c4.081527 9.378827 9.63935 17.657668 16.731364 24.778629 7.063067 7.120961 15.341908 12.707731 24.807576 16.760311 9.465668 4.05258 19.597117 6.049922 30.394346 6.049922s20.986572-2.02629 30.568028-6.049922c9.581456-4.05258 17.918191-9.63935 24.981258-16.760311 7.063067-7.120961 12.649837-15.399802 16.731364-24.778629 4.081527-9.378827 6.107816-19.423435 6.107816-30.133823 0-10.681442-2.02629-20.726049-6.107816-30.133823C819.851307 733.487943 814.293484 725.295943 807.20147 718.29077L807.20147 718.29077M807.20147 718.29077 807.20147 718.29077zM557.244155 907.28571 216.769583 907.28571c-61.743943 0-111.619618-49.904622-111.619618-111.619618L105.149965 186.852862c0-61.743943 49.904622-111.648565 111.619618-111.648565l501.390926 0c61.743943 0 111.619618 49.904622 111.619618 111.619618l0 344.179788c0 9.263039-7.642007 16.905046-16.905046 16.905046s-16.905046-7.642007-16.905046-16.905046L795.970035 186.939703c0-42.262615-34.707449-77.751633-77.751633-77.751633L216.827477 109.188071c-42.262615 0-77.751633 34.707449-77.751633 77.751633l0 608.784283c0 42.262615 34.707449 77.751633 77.751633 77.751633l340.416678 0C557.157314 886.675449 557.157314 892.580636 557.244155 907.28571z" /></svg>